<?xml version="1.0" encoding="UTF-8" standalone="no"?>
<svg xmlns:dc="http://purl.org/dc/elements/1.1/"
     xmlns:cc="http://creativecommons.org/ns#"
     xmlns:rdf="http://www.w3.org/1999/02/22-rdf-syntax-ns#"
     xmlns:svg="http://www.w3.org/2000/svg"
     xmlns="http://www.w3.org/2000/svg"
     id="svg835"
     version="1.1"
     viewBox="0 0 48 48"
     height="48"
     width="48">
    <defs id="defs829" />
    <metadata id="metadata832">
        <rdf:RDF>
            <cc:Work rdf:about="">
                <dc:format>image/svg+xml</dc:format>
                <dc:type rdf:resource="http://purl.org/dc/dcmitype/StillImage" />
                <dc:title>ic_layer_online</dc:title>
            </cc:Work>
        </rdf:RDF>
    </metadata>
    <path id="rect1397"
          d="m 16,4 c -2.181406,0 -4,1.8186 -4,4 V 32 c 0,2.18141 1.818594,4 4,4 h 24 c 2.181406,0 4,-1.81859 4,-4 V 8 c 0,-2.1814 -1.818594,-4 -4,-4 z m 0,4 H 40 V 32 H 16 Z" />
    <path id="rect1433"
          d="M 8,12 H 4 v 28 c 0,2.18141 1.818594,4 4,4 H 36 V 40 H 8 Z" />
    <path id="path4"
          d="M 27.995,10 C 22.47,10 18,14.475 18,20 18,25.525 22.47,30 27.995,30 33.52,30 38,25.525 38,20 38,14.475 33.52,10 27.995,10 Z m 6.925,6 h -2.95 c -0.325,-1.25 -0.78,-2.45 -1.38,-3.56 1.84,0.63 3.37,1.905 4.33,3.56 z M 28,12.035 c 0.835,1.2 1.485,2.535 1.91,3.965 H 26.09 C 26.515,14.57 27.165,13.235 28,12.035 Z M 20.26,22 C 20.095,21.36 20,20.69 20,20 c 0,-0.69 0.095,-1.36 0.26,-2 h 3.375 c -0.08,0.655 -0.135,1.32 -0.135,2 0,0.68 0.055,1.345 0.14,2 z m 0.815,2 h 2.95 c 0.325,1.25 0.78,2.45 1.38,3.565 -1.84,-0.63 -3.37,-1.91 -4.33,-3.565 z m 2.95,-8 h -2.95 c 0.96,-1.655 2.49,-2.935 4.33,-3.565 -0.6,1.115 -1.055,2.315 -1.38,3.565 z M 28,27.965 C 27.17,26.765 26.52,25.43 26.09,24 h 3.82 C 29.48,25.43 28.83,26.765 28,27.965 Z M 30.34,22 h -4.68 c -0.095,-0.655 -0.16,-1.32 -0.16,-2 0,-0.68 0.065,-1.345 0.16,-2 h 4.68 c 0.095,0.655 0.16,1.32 0.16,2 0,0.68 -0.065,1.345 -0.16,2 z m 0.255,5.56 c 0.6,-1.115 1.055,-2.31 1.38,-3.56 h 2.95 c -0.965,1.655 -2.495,2.93 -4.33,3.56 z M 32.36,22 c 0.08,-0.655 0.14,-1.32 0.14,-2 0,-0.68 -0.055,-1.345 -0.14,-2 h 3.375 C 35.9,18.64 36,19.31 36,20 c 0,0.69 -0.095,1.36 -0.265,2 z" />
</svg>
