<?xml version="1.0" encoding="UTF-8" standalone="no"?>
<svg xmlns:dc="http://purl.org/dc/elements/1.1/"
     xmlns:cc="http://creativecommons.org/ns#"
     xmlns:rdf="http://www.w3.org/1999/02/22-rdf-syntax-ns#"
     xmlns:svg="http://www.w3.org/2000/svg"
     xmlns="http://www.w3.org/2000/svg"
     width="48"
     height="48"
     viewBox="0 0 48 48"
     version="1.1"
     id="svg835">
    <defs id="defs829" />
    <metadata id="metadata832">
        <rdf:RDF>
            <cc:Work rdf:about="">
                <dc:format>image/svg+xml</dc:format>
                <dc:type rdf:resource="http://purl.org/dc/dcmitype/StillImage" />
                <dc:title>ic_layer_vector</dc:title>
            </cc:Work>
        </rdf:RDF>
    </metadata>
    <path id="rect1397"
          d="m 16,4 c -2.181406,0 -4,1.8186 -4,4 V 32 c 0,2.18141 1.818594,4 4,4 h 24 c 2.181406,0 4,-1.81859 4,-4 V 8 c 0,-2.1814 -1.818594,-4 -4,-4 z m 0,4 H 40 V 32 H 16 Z" />
    <path id="rect1433"
          d="M 8,12 H 4 v 28 c 0,2.18141 1.818594,4 4,4 H 36 V 40 H 8 Z" />
    <path id="path6"
          d="m 18,10 v 6 h 2.28 l 1.29,8 H 20 v 6 h 6 v -1.94 l 5,-0.01 V 30 h 6 V 24 H 35.17 L 36,17 h 2 v -6 h -6 v 3.53 L 30.8,16 H 25.59 L 24,13.82 V 10 m -4,2 h 2 v 2 h -2 m 14,-1 h 2 v 2 h -2 m -11.69,1 h 0.8 L 25,18.59 V 22 h 6 V 18.91 L 32.57,17 H 34 l -0.84,7 H 31 v 2.06 H 26 V 24 H 23.6 M 27,18 h 2 v 2 h -2 m -5,6 h 2 v 2 h -2 m 11,-2 h 2 v 2 h -2" />
</svg>
