<?xml version="1.0" encoding="UTF-8" standalone="no"?>
<svg xmlns:dc="http://purl.org/dc/elements/1.1/"
     xmlns:cc="http://creativecommons.org/ns#"
     xmlns:rdf="http://www.w3.org/1999/02/22-rdf-syntax-ns#"
     xmlns:svg="http://www.w3.org/2000/svg"
     xmlns="http://www.w3.org/2000/svg"
     width="48"
     height="48"
     viewBox="0 0 48 48"
     version="1.1"
     id="svg835">
    <defs id="defs829" />
    <metadata id="metadata832">
        <rdf:RDF>
            <cc:Work rdf:about="">
                <dc:format>image/svg+xml</dc:format>
                <dc:type rdf:resource="http://purl.org/dc/dcmitype/StillImage" />
                <dc:title>ic_layer_tiles</dc:title>
            </cc:Work>
        </rdf:RDF>
    </metadata>
    <path id="rect1397"
          d="m 16,4 c -2.181406,0 -4,1.8186 -4,4 V 32 c 0,2.18141 1.818594,4 4,4 h 24 c 2.181406,0 4,-1.81859 4,-4 V 8 c 0,-2.1814 -1.818594,-4 -4,-4 z m 0,4 H 40 V 32 H 16 Z" />
    <path id="rect1433"
          d="M 8,12 H 4 v 28 c 0,2.18141 1.818594,4 4,4 H 36 V 40 H 8 Z" />
    <path id="path1444"
          d="M 29.818182,19.09091 26.409091,23.63636 29,27.09091 27.545454,28.18182 23.454545,22.72727 18,30 h 20 z" />
</svg>
